Coordinates
version=1
nRows=17
nColumns=40
inDegrees=yes

Units are S.I. units (second, meters, Newtons, ...)
Angles are in degrees.

endheader
time	pelvis_tilt	pelvis_list	pelvis_rotation	pelvis_tx	pelvis_ty	pelvis_tz	hip_flexion_r	hip_adduction_r	hip_rotation_r	knee_angle_r	knee_angle_r_beta	ankle_angle_r	subtalar_angle_r	mtp_angle_r	hip_flexion_l	hip_adduction_l	hip_rotation_l	knee_angle_l	knee_angle_l_beta	ankle_angle_l	subtalar_angle_l	mtp_angle_l	lumbar_extension	lumbar_bending	lumbar_rotation	arm_flex_r	arm_add_r	arm_rot_r	elbow_flex_r	pro_sup_r	wrist_flex_r	wrist_dev_r	arm_flex_l	arm_add_l	arm_rot_l	elbow_flex_l	pro_sup_l	wrist_flex_l	wrist_dev_l
      0.00000000	     -9.98274735	     -1.97436521	     -2.90998773	     -2.03885868	      0.83551989	     -0.37805219	     32.96657892	      4.88862898	     -7.46278773	    -44.05430928	     -0.76889275	     12.28158021	     -7.28691785	     -5.56210841	     18.56346494	      3.73849186	      5.50354519	    -93.82017068	     -1.63747088	    -15.78877284	     19.28542982	     24.30403864	    -12.97988850	      6.67444692	     -0.87357734	    -14.57055509	    -23.07569917	      3.01715030	     93.02806695	     89.95437384	      0.00000000	      0.00000000	    -13.52184550	     22.24806920	     -8.61737225	     84.20175087	     89.95437384	      0.00000000	      0.00000000
      0.01000000	     -9.55047535	     -2.03187192	     -4.23167184	     -1.99759917	      0.83292447	     -0.37641532	     29.92835083	      5.72536113	     -5.68316714	    -45.43838825	     -0.79304948	     15.47565591	     -7.68008525	     -6.11084121	     23.74556710	      4.77711071	      5.95699998	    -97.95825204	     -1.70969403	    -14.55740515	     19.33763819	     23.95816771	    -13.98825836	      6.51111747	      2.23537531	    -11.18727757	    -22.55343844	      4.84698864	     94.56756873	     89.95437384	      0.00000000	      0.00000000	    -15.80265667	     23.00502733	     -6.82975280	     81.95381610	     89.95437384	      0.00000000	      0.00000000
      0.02000000	     -9.68639525	     -2.27334495	     -4.83167779	     -1.95451256	      0.83209661	     -0.37545699	     26.48296245	      6.23401908	     -4.49144403	    -45.25000905	     -0.78976164	     17.03241807	     -7.22092148	     -6.58691608	     29.39297466	      5.57509487	      5.42044379	   -101.13787059	     -1.76518884	    -11.95148446	     19.31929639	     23.93041467	    -14.12970676	      6.64388414	      4.31278615	     -7.73640434	    -21.76618483	      6.80883139	     95.91652507	     89.95437384	      0.00000000	      0.00000000	    -18.50363638	     23.38011802	     -4.12177785	     79.44436895	     89.95437384	      0.00000000	      0.00000000
      0.03000000	    -10.82324635	     -1.57115562	     -6.49198341	     -1.91359628	      0.83104626	     -0.37327399	     24.33536351	      6.22419309	     -1.89569211	    -44.88454745	     -0.78338314	     17.77385543	     -6.89307028	     -7.34547968	     36.60783991	      6.06817502	      6.19021766	   -103.19027827	     -1.80101011	    -10.51865305	     19.33850811	     24.40905922	    -13.34119807	      5.58645759	      7.28804839	     -4.73028476	    -20.71002992	      7.94950718	     98.14116209	     89.95437384	      0.00000000	      0.00000000	    -21.14848989	     24.01739363	     -1.34699904	     77.62983593	     89.95437384	      0.00000000	      0.00000000
      0.04000000	    -10.42512081	     -0.95257153	     -6.33912437	     -1.86726514	      0.83316227	     -0.37377797	     19.35099781	      4.96174962	     -1.48333793	    -42.94144441	     -0.74946959	     18.17438623	     -5.87048679	     -8.16975392	     41.27793030	      5.23255837	      5.64097441	   -103.68487560	     -1.80964246	     -9.27599204	     19.36753230	     24.74971653	    -13.51161889	      4.82777114	      8.37438446	     -2.28498484	    -19.49927517	      9.01719414	    100.59045831	     89.95437384	      0.00000000	      0.00000000	    -23.97726898	     24.80392070	      1.32261602	     76.36711498	     89.95437384	      0.00000000	      0.00000000
      0.05000000	    -10.46280322	      0.30784041	     -6.50992879	     -1.82188756	      0.83558641	     -0.37361773	     15.18203457	      3.11354541	     -0.90160134	    -41.00810934	     -0.71572653	     17.23492337	     -5.01083759	     -8.45521877	     46.28227919	      4.05390792	      5.85672955	   -103.28331500	     -1.80263391	     -8.21474306	     19.40464195	     24.72868247	    -13.19451679	      3.22137093	      9.53055555	     -0.04096014	    -17.92071660	      9.62642640	    103.34558644	     89.95437384	      0.00000000	      0.00000000	    -26.96943088	     25.76622108	      4.28582859	     76.05477508	     89.95437384	      0.00000000	      0.00000000
      0.06000000	    -10.26974591	      1.54884950	     -6.89579700	     -1.77688049	      0.83940280	     -0.37241221	     11.04991847	      1.21086841	     -0.59149126	    -39.06570673	     -0.68182521	     15.01801674	     -3.99807108	     -9.45581391	     50.65145557	      3.31964030	      6.51642717	   -101.60929975	     -1.77341683	     -7.78606426	     19.43540745	     25.65555328	    -13.21381665	      1.31159412	     10.59924682	      2.26824042	    -16.45845028	     10.53251633	    106.08539304	     89.95437384	      0.00000000	      0.00000000	    -30.21897706	     26.50727910	      7.97984484	     76.84967861	     89.95437384	      0.00000000	      0.00000000
      0.07000000	    -10.30183465	      2.79026892	     -7.05812040	     -1.73140526	      0.84375360	     -0.37192120	      7.25292047	     -0.91563974	     -0.94052839	    -36.97171422	     -0.64527814	     11.29637325	     -3.09175678	     -9.54482053	     54.82686066	      2.36305333	      7.10982967	    -99.14670545	     -1.73043645	     -7.46923390	     19.44802223	     25.92923000	    -12.93200129	     -0.54125034	     11.50484604	      4.02241536	    -14.96755722	     10.98540007	    108.99328442	     89.95437384	      0.00000000	      0.00000000	    -33.39553658	     27.14243757	     11.42520247	     78.17492297	     89.95437384	      0.00000000	      0.00000000
      0.08000000	    -10.43668159	      4.06764287	     -7.08905184	     -1.68521214	      0.84857012	     -0.37153166	      3.74985836	     -3.06225443	     -1.48753272	    -34.74836738	     -0.60647342	      6.18380989	     -2.11232786	     -8.96939642	     58.46428849	      1.46336168	      7.77681902	    -95.83823953	     -1.67269283	     -7.56585054	     19.45607264	     26.04978525	    -12.45358504	     -2.45366711	     12.22538695	      5.52153610	    -13.79672543	     11.58388762	    111.77951192	     89.95437384	      0.00000000	      0.00000000	    -36.36678258	     27.62193783	     14.70071659	     79.71553483	     89.95437384	      0.00000000	      0.00000000
      0.09000000	    -10.98727673	      5.21464181	     -7.00564569	     -1.63869225	      0.85290375	     -0.37140714	      0.88254191	     -4.86745848	     -1.45100476	    -32.57750517	     -0.56858473	      0.64433134	     -1.05954675	     -8.09569625	     61.96965428	      0.71156924	      8.46500851	    -91.84589745	     -1.60301331	     -7.87586772	     19.42789248	     26.00639613	    -11.43956974	     -4.16100213	     13.00695163	      6.40296523	    -12.57335413	     11.69164024	    114.48739527	     89.95437384	      0.00000000	      0.00000000	    -39.09657418	     28.24934548	     17.21403461	     81.42294954	     89.95437384	      0.00000000	      0.00000000
      0.10000000	    -10.47990549	      6.61264664	     -6.84103656	     -1.59104371	      0.85964603	     -0.37189004	     -2.68252959	     -7.46459757	     -3.06467664	    -30.37735250	     -0.53018482	     -8.12626103	     -0.50098464	     -6.12764237	     63.28698604	     -0.35690870	      9.61010016	    -86.61214021	     -1.51166702	     -8.50634408	     19.39069830	     26.24057602	    -11.65986881	     -6.20849472	     13.14794460	      7.72037421	    -11.91065347	     12.73094539	    116.67017373	     89.95437384	      0.00000000	      0.00000000	    -41.39446560	     28.38234720	     19.69979414	     82.92797492	     89.95437384	      0.00000000	      0.00000000
      0.11000000	    -10.38043622	      7.50991848	     -6.79855393	     -1.54319575	      0.86560732	     -0.37192572	     -5.58011682	     -9.20177398	     -4.06551097	    -27.94768954	     -0.48777920	    -18.22969480	     -0.66925789	     -2.81575993	     64.51452713	     -0.87323138	     10.36299791	    -81.74595465	     -1.42673606	     -8.57090613	     19.27856732	     26.53278046	    -11.39313507	     -7.66894953	     13.69075138	      8.29582290	    -11.44776630	     13.63578603	    118.88681531	     89.95437384	      0.00000000	      0.00000000	    -43.17021955	     28.82318704	     21.10326203	     84.18695536	     89.95437384	      0.00000000	      0.00000000
      0.12000000	    -10.54819842	      7.81000623	     -7.06926489	     -1.49573126	      0.87086323	     -0.37126879	     -7.62680866	    -10.06210051	     -4.17933759	    -26.06114577	     -0.45485280	    -27.31183798	     -0.19766582	      0.14382574	     65.26960367	     -0.64777993	     10.76734948	    -76.34282089	     -1.33243358	     -9.09943618	     19.11981826	     26.60887300	    -10.82261204	     -8.47237474	     14.58816553	      8.62138459	    -11.28219509	     14.52585662	    120.98143590	     89.95437384	      0.00000000	      0.00000000	    -44.40136218	     29.21208933	     21.87138266	     85.15537102	     89.95437384	      0.00000000	      0.00000000
      0.13000000	    -11.07630434	      7.66452542	     -7.35199543	     -1.44838706	      0.87494882	     -0.37032668	     -9.10153272	    -10.18030345	     -3.38729711	    -24.89608528	     -0.43451866	    -31.74751312	     -0.01618732	      1.87571602	     65.73302783	      0.05384969	     11.08267115	    -70.42194508	     -1.22909481	    -10.06008372	     18.89892096	     26.60611518	     -9.82759544	     -8.72137077	     15.56285793	      8.48145125	    -11.31055588	     15.38002101	    122.87118428	     89.95437384	      0.00000000	      0.00000000	    -45.11392890	     29.57363082	     22.12397794	     85.88317838	     89.95437384	      0.00000000	      0.00000000
      0.14000000	    -11.07531819	      7.05286562	     -7.49346546	     -1.40048526	      0.87937080	     -0.36941440	    -10.79977927	     -9.55097336	     -1.93637342	    -24.57545948	     -0.42892268	    -32.78614644	     -0.73300490	     20.29833250	     65.02424229	      0.86111088	     11.25965872	    -64.18456830	     -1.12023205	    -11.23300900	     18.62497874	     26.45881715	     -9.48877194	     -8.49028872	     16.43906133	      7.90310287	    -11.65761632	     15.88671298	    124.55431852	     89.95437384	      0.00000000	      0.00000000	    -45.08528234	     30.08288318	     21.67671911	     86.25393105	     89.95437384	      0.00000000	      0.00000000
      0.15000000	    -11.30870745	      6.69779658	     -7.74767776	     -1.35262203	      0.88230127	     -0.36898124	    -11.42576860	     -9.32712676	     -0.84683779	    -25.58456936	     -0.44653497	    -34.08511884	     -2.36082215	     20.71152466	     64.12688470	      1.41097312	     11.58888555	    -57.68545603	     -1.00680114	    -12.73775594	     18.42712640	     26.55925819	     -8.77186353	     -8.42858057	     17.33602398	      6.88839261	    -12.19838189	     16.48792800	    125.72541413	     89.95437384	      0.00000000	      0.00000000	    -44.67781735	     30.58690965	     20.86660683	     86.37970877	     89.95437384	      0.00000000	      0.00000000
      0.16000000	    -11.48213889	      6.19295008	     -8.01127786	     -1.30462524	      0.88420163	     -0.36843182	    -11.67104350	     -8.78011865	      0.32146877	    -27.43160796	     -0.47877188	    -33.90879194	     -4.94698211	     21.14173766	     62.80240634	      2.04565358	     12.07370317	    -51.25424971	     -0.89455541	    -13.85243404	     18.32159574	     26.38145277	     -8.07552769	     -8.21638837	     18.26902610	      5.40772691	    -12.85645295	     16.75142826	    126.39012093	     89.95437384	      0.00000000	      0.00000000	    -43.75345538	     31.15214580	     19.63064726	     86.42994908	     89.95437384	      0.00000000	      0.00000000
